<svg version="1.1" xmlns="http://www.w3.org/2000/svg" viewBox="0 0 824 185.5" width="824" height="185.5">
  <!-- svg-source:excalidraw -->
  
  <defs>
    <style>
      @font-face {
        font-family: "Virgil";
        src: url("https://excalidraw.com/Virgil.woff2");
      }
      @font-face {
        font-family: "Cascadia";
        src: url("https://excalidraw.com/Cascadia.woff2");
      }
    </style>
  </defs>
  <rect x="0" y="0" width="824" height="185.5" fill="#ffffff"></rect><g stroke-linecap="round" transform="translate(10 76.5) rotate(0 109 49.5)"><path d="M3.49 9.66 C3.49 9.66, 3.49 9.66, 3.49 9.66 M3.49 9.66 C3.49 9.66, 3.49 9.66, 3.49 9.66 M3.62 21.7 C7.58 16.61, 11.83 12.06, 15.43 8.11 M3.62 21.7 C7.37 17.21, 12.97 11.07, 15.43 8.11 M3.76 33.74 C7.63 25.91, 14.8 20.04, 29.34 4.31 M3.76 33.74 C11.79 24.68, 18.58 16.48, 29.34 4.31 M3.89 45.78 C15.26 34.74, 26.86 21.2, 39.97 4.27 M3.89 45.78 C10.45 36.47, 19.65 28.09, 39.97 4.27 M3.37 58.58 C15.34 44.53, 24.46 31.65, 50.6 4.24 M3.37 58.58 C15.94 44.14, 28.64 31.02, 50.6 4.24 M3.5 70.62 C24.99 47.1, 45.92 20.59, 61.23 4.2 M3.5 70.62 C21.98 47.86, 42.86 24.62, 61.23 4.2 M3.63 82.66 C27.04 54.52, 51.32 30.56, 71.86 4.17 M3.63 82.66 C27.41 54.64, 52.75 25.82, 71.86 4.17 M6.39 91.68 C23.66 71.46, 42.19 51.41, 82.49 4.13 M6.39 91.68 C34 60.03, 61.81 26.66, 82.49 4.13 M11.77 97.68 C45.33 62.05, 76.13 24.92, 93.12 4.1 M11.77 97.68 C31.76 74.41, 52.36 49.27, 93.12 4.1 M21.09 99.16 C41.12 75, 58.89 55.25, 103.75 4.06 M21.09 99.16 C46.85 69.96, 73.22 40.25, 103.75 4.06 M29.09 102.14 C61.42 66.03, 91.78 28.26, 114.38 4.03 M29.09 102.14 C53.86 75.02, 76.75 47.88, 114.38 4.03 M39.07 102.86 C58.13 82.15, 74.86 58.93, 125.01 4 M39.07 102.86 C62.7 75.38, 85.23 48.24, 125.01 4 M49.7 102.83 C68.24 80.79, 89.08 55.98, 135.64 3.96 M49.7 102.83 C78.9 68.14, 109.01 33.88, 135.64 3.96 M60.33 102.79 C80.98 78.73, 101.16 57.77, 146.27 3.93 M60.33 102.79 C92.02 65.76, 125.75 27.23, 146.27 3.93 M70.96 102.76 C89.17 79.09, 110.2 57.97, 156.9 3.89 M70.96 102.76 C98.02 69.78, 127.17 37.1, 156.9 3.89 M81.59 102.72 C113.93 66.69, 147.5 29.86, 167.53 3.86 M81.59 102.72 C103.71 78.76, 124.84 55.19, 167.53 3.86 M92.22 102.69 C110.78 84.17, 128.97 62.76, 178.16 3.82 M92.22 102.69 C118.02 74.7, 140.45 47.31, 178.16 3.82 M102.85 102.66 C135.65 63.71, 170.6 25.1, 188.79 3.79 M102.85 102.66 C128.54 70.31, 157.06 38.9, 188.79 3.79 M113.48 102.62 C139.27 71.96, 167.41 40.03, 198.77 4.51 M113.48 102.62 C142.79 68.16, 171.62 35.71, 198.77 4.51 M124.11 102.59 C146.22 77.19, 173.32 47.3, 209.4 4.47 M124.11 102.59 C149.11 71.62, 176.63 40.18, 209.4 4.47 M134.74 102.55 C159.93 74.05, 183.07 47.32, 214.78 10.48 M134.74 102.55 C159.64 73.67, 184.39 46.77, 214.78 10.48 M145.37 102.52 C162.27 78.85, 181.24 59.68, 217.54 19.5 M145.37 102.52 C174.63 70.4, 202.98 37.57, 217.54 19.5 M156 102.48 C177.82 76.88, 200.58 52.48, 217.67 31.54 M156 102.48 C168.89 87.29, 182.23 71.37, 217.67 31.54 M166.63 102.45 C178.26 88.66, 188.84 78.34, 217.8 43.58 M166.63 102.45 C187.36 78.79, 207.86 56.17, 217.8 43.58 M177.26 102.41 C193.02 88.26, 206.21 69.28, 217.94 55.62 M177.26 102.41 C192.21 84.54, 208 67.39, 217.94 55.62 M187.89 102.38 C197.05 91.73, 202.42 82.85, 218.07 67.66 M187.89 102.38 C199.84 88.93, 210.52 74.39, 218.07 67.66 M197.86 103.1 C205.46 95.59, 214.06 84.73, 220.83 76.69 M197.86 103.1 C206.42 94.99, 213.54 85.24, 220.83 76.69" stroke="#fa5252" stroke-width="1" fill="none"></path><path d="M24.75 0 M24.75 0 C88.39 1.02, 148.02 0.34, 193.25 0 M24.75 0 C79.09 0.2, 133.46 -0.59, 193.25 0 M193.25 0 C209.93 0.21, 219.64 9.49, 218 24.75 M193.25 0 C208.49 -0.04, 218.86 8.83, 218 24.75 M218 24.75 C218.04 40.53, 216.09 58.97, 218 74.25 M218 24.75 C218.09 36.85, 217.4 50.72, 218 74.25 M218 74.25 C216.12 91.2, 208.96 97.18, 193.25 99 M218 74.25 C218.12 91.23, 207.65 100.47, 193.25 99 M193.25 99 C140.43 98.2, 84.34 99.57, 24.75 99 M193.25 99 C146.14 99.9, 98.62 99.06, 24.75 99 M24.75 99 C6.85 99.65, 0.12 92.14, 0 74.25 M24.75 99 C9.76 97.2, 0.46 90.39, 0 74.25 M0 74.25 C0.36 54.02, 2.1 35.2, 0 24.75 M0 74.25 C0.25 58.34, 0.12 42.4, 0 24.75 M0 24.75 C0.38 8.51, 7.67 -0.36, 24.75 0 M0 24.75 C0.71 9.84, 7.44 -1.25, 24.75 0" stroke="#c92a2a" stroke-width="2" fill="none"></path></g><g stroke-linecap="round" transform="translate(596 76.5) rotate(0 109 49.5)"><path d="M3.49 9.66 C3.49 9.66, 3.49 9.66, 3.49 9.66 M3.49 9.66 C3.49 9.66, 3.49 9.66, 3.49 9.66 M3.62 21.7 C6.72 20.16, 7.54 16.02, 15.43 8.11 M3.62 21.7 C8.17 16.77, 11.68 12.73, 15.43 8.11 M3.76 33.74 C11.03 23.15, 20.94 17.84, 29.34 4.31 M3.76 33.74 C10.01 25.85, 17.21 17.3, 29.34 4.31 M3.89 45.78 C15.29 33.93, 28.51 20.77, 39.97 4.27 M3.89 45.78 C14.78 32.95, 27.58 18.89, 39.97 4.27 M3.37 58.58 C22.87 39.46, 40.94 16.31, 50.6 4.24 M3.37 58.58 C18.93 40.02, 35.76 21.51, 50.6 4.24 M3.5 70.62 C19.41 54.04, 30.84 34.72, 61.23 4.2 M3.5 70.62 C21.4 49.03, 41.42 27.43, 61.23 4.2 M3.63 82.66 C21.79 63.99, 38.66 41.04, 71.86 4.17 M3.63 82.66 C22.23 62.72, 38.91 41.72, 71.86 4.17 M6.39 91.68 C30.09 60.02, 54.85 32.73, 82.49 4.13 M6.39 91.68 C24.16 69.02, 43.21 48, 82.49 4.13 M11.77 97.68 C44.05 58.93, 74.88 24.67, 93.12 4.1 M11.77 97.68 C31.94 75.92, 49.59 54.67, 93.12 4.1 M21.09 99.16 C48.18 69.64, 75.31 36.34, 103.75 4.06 M21.09 99.16 C41.1 76.09, 61.48 52.54, 103.75 4.06 M29.09 102.14 C58.09 70.8, 85.57 38.39, 114.38 4.03 M29.09 102.14 C50.85 76.2, 72.69 50.66, 114.38 4.03 M39.07 102.86 C72.58 65.4, 108.22 23.4, 125.01 4 M39.07 102.86 C65.99 72.09, 93.28 41.47, 125.01 4 M49.7 102.83 C67.92 79.82, 86.78 59.26, 135.64 3.96 M49.7 102.83 C69.52 79.07, 90.44 55.23, 135.64 3.96 M60.33 102.79 C80.88 82.05, 96.25 63.22, 146.27 3.93 M60.33 102.79 C88.63 69.56, 117.11 36.85, 146.27 3.93 M70.96 102.76 C92.65 74.58, 118.86 46.71, 156.9 3.89 M70.96 102.76 C96.53 73.08, 123.58 43.35, 156.9 3.89 M81.59 102.72 C103.65 77.62, 120.41 55.95, 167.53 3.86 M81.59 102.72 C99.07 81.96, 115.4 63.21, 167.53 3.86 M92.22 102.69 C124.36 65.69, 155.55 30.54, 178.16 3.82 M92.22 102.69 C114.49 77.24, 136.97 50.89, 178.16 3.82 M102.85 102.66 C123.09 82.83, 139.36 62.44, 188.79 3.79 M102.85 102.66 C131.06 73.41, 156.67 41.56, 188.79 3.79 M113.48 102.62 C145.62 66.54, 176.37 31.56, 198.77 4.51 M113.48 102.62 C145.43 66.4, 175.69 30.9, 198.77 4.51 M124.11 102.59 C150.02 73.82, 174.27 45.29, 209.4 4.47 M124.11 102.59 C148.3 75.59, 173.29 48.2, 209.4 4.47 M134.74 102.55 C154.87 80.44, 172.01 56.67, 214.78 10.48 M134.74 102.55 C161.69 72.61, 187.43 42.52, 214.78 10.48 M145.37 102.52 C169.62 75.54, 190.63 51.08, 217.54 19.5 M145.37 102.52 C159.51 85.64, 175.7 68.24, 217.54 19.5 M156 102.48 C176.73 76.31, 200.83 51.87, 217.67 31.54 M156 102.48 C173.88 80.72, 192.38 59.72, 217.67 31.54 M166.63 102.45 C180.32 84.49, 197.24 67.98, 217.8 43.58 M166.63 102.45 C178.42 89.75, 190.6 75.56, 217.8 43.58 M177.26 102.41 C192.56 85.65, 208.17 67.58, 217.94 55.62 M177.26 102.41 C190.43 88.54, 202.49 72.67, 217.94 55.62 M187.89 102.38 C200.88 89.58, 211.12 76.69, 218.07 67.66 M187.89 102.38 C199.1 89.91, 208.75 78.53, 218.07 67.66 M197.86 103.1 C204.63 93.27, 212.92 85.37, 220.83 76.69 M197.86 103.1 C204.31 95.86, 209.04 89.85, 220.83 76.69" stroke="#40c057" stroke-width="1" fill="none"></path><path d="M24.75 0 M24.75 0 C77.08 -2.17, 127.31 -0.47, 193.25 0 M24.75 0 C62.54 0.85, 99.44 0.8, 193.25 0 M193.25 0 C210.98 -0.6, 218.28 6.57, 218 24.75 M193.25 0 C209.82 -1.85, 217.14 6.57, 218 24.75 M218 24.75 C216.99 38.55, 217.44 52.66, 218 74.25 M218 24.75 C218.89 38.89, 218.69 51.77, 218 74.25 M218 74.25 C218.91 90.27, 209.55 99.08, 193.25 99 M218 74.25 C215.76 88.66, 207.96 98.18, 193.25 99 M193.25 99 C145.22 97.32, 93.8 97.12, 24.75 99 M193.25 99 C130.92 98.03, 67.03 98.24, 24.75 99 M24.75 99 C8.31 99.73, 1.13 89.16, 0 74.25 M24.75 99 C6.59 99.64, -0.58 89.48, 0 74.25 M0 74.25 C0.13 60.06, 0.9 45.75, 0 24.75 M0 74.25 C-0.37 57.47, -0.02 39.3, 0 24.75 M0 24.75 C-0.06 6.45, 9.57 -1.65, 24.75 0 M0 24.75 C1.37 10.12, 7.43 2.06, 24.75 0" stroke="#2b8a3e" stroke-width="2" fill="none"></path></g><g transform="translate(67 12) rotate(0 53 23)"><text x="53" y="32" font-family="Virgil, Segoe UI Emoji" font-size="36px" fill="#c92a2a" text-anchor="middle" style="white-space: pre;" direction="ltr">Greed</text></g><g transform="translate(665.5 10) rotate(0 42.5 23)"><text x="42.5" y="32" font-family="Virgil, Segoe UI Emoji" font-size="36px" fill="#2b8a3e" text-anchor="middle" style="white-space: pre;" direction="ltr">Need</text></g><g stroke-linecap="round"><g transform="translate(229 124.5) rotate(0 181.19743677824727 2.0062628896068873)"><path d="M-0.41 0.93 C60.12 1.13, 302.41 1.88, 362.8 2.42 M1.58 0.37 C61.97 1.24, 301.3 3.3, 361.75 3.65" stroke="#495057" stroke-width="2" fill="none"></path></g><g transform="translate(229 124.5) rotate(0 181.19743677824727 2.0062628896068873)"><path d="M335.02 13.36 C340.04 9.28, 350.56 6.87, 359.83 3.4 M332.51 13.88 C344.25 10.06, 356.06 6.21, 362.33 2.67" stroke="#495057" stroke-width="2" fill="none"></path></g><g transform="translate(229 124.5) rotate(0 181.19743677824727 2.0062628896068873)"><path d="M335.18 -7.16 C340.35 -5.71, 350.83 -2.58, 359.83 3.4 M332.66 -6.64 C344.18 -2.36, 355.93 1.91, 362.33 2.67" stroke="#495057" stroke-width="2" fill="none"></path></g></g></svg>