<svg version="1.1" xmlns="http://www.w3.org/2000/svg" viewBox="0 0 1550 758.9923626910632" width="1550" height="758.9923626910632">
  <!-- svg-source:excalidraw -->
  
  <defs>
    <style>
      @font-face {
        font-family: "Virgil";
        src: url("https://excalidraw.com/Virgil.woff2");
      }
      @font-face {
        font-family: "Cascadia";
        src: url("https://excalidraw.com/Cascadia.woff2");
      }
    </style>
  </defs>
  <rect x="0" y="0" width="1550" height="758.9923626910632" fill="#ffffff"></rect><g stroke-linecap="round" transform="translate(589.5 74) rotate(0 139.5 51.5)"><path d="M6.2 6.71 C6.2 6.71, 6.2 6.71, 6.2 6.71 M6.2 6.71 C6.2 6.71, 6.2 6.71, 6.2 6.71 M3.05 22.53 C5.98 17.51, 11.85 13.71, 18.14 5.17 M3.05 22.53 C6.3 19.4, 10.16 14.78, 18.14 5.17 M3.18 34.57 C13.47 23.81, 23.92 11.66, 30.08 3.63 M3.18 34.57 C12 25.63, 19.75 14.72, 30.08 3.63 M3.32 46.61 C19.2 30.56, 32.25 14.43, 40.71 3.59 M3.32 46.61 C17.08 31.22, 29.25 16.94, 40.71 3.59 M3.45 58.65 C18.75 39.19, 35.33 21.78, 51.34 3.56 M3.45 58.65 C15.98 44.47, 26.79 31.47, 51.34 3.56 M3.58 70.69 C22.06 48.09, 38.34 29.08, 61.97 3.52 M3.58 70.69 C17.26 56.74, 29.96 41.93, 61.97 3.52 M1.75 85 C25.91 55.51, 51.58 25.25, 72.6 3.49 M1.75 85 C18.6 66.81, 33.63 48.54, 72.6 3.49 M4.51 94.02 C25.33 71.71, 45.43 48.99, 83.23 3.45 M4.51 94.02 C32.07 61.95, 59.26 28.71, 83.23 3.45 M9.89 100.02 C29.59 78.01, 48.8 55.95, 93.86 3.42 M9.89 100.02 C32.01 74.17, 53.56 50.81, 93.86 3.42 M17.24 103.76 C38.18 80.98, 56.63 54.52, 104.49 3.38 M17.24 103.76 C46.05 71.45, 74.09 38.51, 104.49 3.38 M27.21 104.48 C55.9 73.11, 84.02 39.4, 115.12 3.35 M27.21 104.48 C59.38 66.2, 92.57 28.89, 115.12 3.35 M37.84 104.45 C70.2 69.58, 98.71 31.76, 125.1 4.07 M37.84 104.45 C67.82 69.3, 100.45 33.99, 125.1 4.07 M48.47 104.41 C74.11 72.51, 100.88 44.08, 135.73 4.03 M48.47 104.41 C72.55 74.85, 98.61 46.88, 135.73 4.03 M59.1 104.38 C88.74 69.31, 116.66 37.22, 146.36 4 M59.1 104.38 C88.36 71.33, 116.54 37.33, 146.36 4 M69.73 104.34 C94.31 80.36, 116.79 52.4, 156.99 3.97 M69.73 104.34 C99.05 70.28, 129.69 36.06, 156.99 3.97 M80.36 104.31 C108.84 74.31, 135.77 39.67, 167.62 3.93 M80.36 104.31 C112.54 65.34, 145.77 26.52, 167.62 3.93 M90.99 104.27 C121.32 72.47, 150.17 35.85, 178.25 3.9 M90.99 104.27 C125.11 65.64, 157.23 29.29, 178.25 3.9 M101.62 104.24 C131.16 70.7, 157.31 39.49, 188.88 3.86 M101.62 104.24 C127.9 72.75, 154.22 43.61, 188.88 3.86 M112.25 104.2 C137.68 76.14, 166.25 44.89, 199.51 3.83 M112.25 104.2 C132.06 79.44, 152.93 54.94, 199.51 3.83 M122.88 104.17 C141.26 82.5, 157.8 62.69, 210.14 3.79 M122.88 104.17 C153.8 69.72, 183.62 33.65, 210.14 3.79 M133.51 104.14 C165.18 67.12, 200.24 29.94, 220.77 3.76 M133.51 104.14 C159.11 76.76, 182.16 48.07, 220.77 3.76 M144.14 104.1 C166 77.69, 189.82 54.66, 231.4 3.72 M144.14 104.1 C162.14 82.58, 182.75 60.4, 231.4 3.72 M154.77 104.07 C173.65 80.49, 194.87 56.55, 242.03 3.69 M154.77 104.07 C177.95 75.53, 203.35 47.25, 242.03 3.69 M165.4 104.03 C184.71 81.82, 202.26 61.76, 254.63 1.39 M165.4 104.03 C190.66 75.45, 216.1 44.91, 254.63 1.39 M176.03 104 C211.6 63.56, 245.68 25.22, 264.6 2.11 M176.03 104 C199.02 78.68, 222.37 51.87, 264.6 2.11 M186.01 104.72 C207.23 77.75, 231.24 53.4, 271.95 5.85 M186.01 104.72 C216.27 68.51, 249.13 32, 271.95 5.85 M196.64 104.68 C227.44 69.69, 259.99 31.85, 277.33 11.85 M196.64 104.68 C223.45 73.36, 251.05 42.08, 277.33 11.85 M207.27 104.65 C225.49 85.06, 240.5 66.79, 280.09 20.88 M207.27 104.65 C231.38 77.64, 254.31 49.89, 280.09 20.88 M217.9 104.61 C234.1 87.33, 247.74 70.45, 280.22 32.92 M217.9 104.61 C234.57 87.21, 249.95 67.9, 280.22 32.92 M228.53 104.58 C247.18 82.93, 268.18 58.86, 280.36 44.96 M228.53 104.58 C243.46 87.58, 260.45 68.54, 280.36 44.96 M239.16 104.55 C256.74 86.78, 271.03 68.69, 280.49 57 M239.16 104.55 C248.71 92.68, 258.84 81.78, 280.49 57 M249.79 104.51 C256.16 95.16, 265.42 88.86, 280.62 69.04 M249.79 104.51 C257.76 94.57, 266.74 84.52, 280.62 69.04 M257.79 107.49 C264.93 97.64, 270.96 91.63, 282.07 79.57 M257.79 107.49 C266.61 97.35, 274.19 88.09, 282.07 79.57" stroke="#40c057" stroke-width="1" fill="none"></path><path d="M25.75 0 M25.75 0 C103.5 -1.13, 182.42 -2.82, 253.25 0 M25.75 0 C97.92 -1.15, 170.54 -0.64, 253.25 0 M253.25 0 C270.71 1.71, 279.02 9.63, 279 25.75 M253.25 0 C272.7 -1.7, 276.83 7.83, 279 25.75 M279 25.75 C278.6 43.37, 277.23 60.1, 279 77.25 M279 25.75 C279.38 37.15, 278.31 47.35, 279 77.25 M279 77.25 C277.24 93.71, 269.01 102.63, 253.25 103 M279 77.25 C279.27 95.11, 268.32 101.79, 253.25 103 M253.25 103 C178.21 102.68, 104.26 102.79, 25.75 103 M253.25 103 C181.64 103.27, 109.69 104.16, 25.75 103 M25.75 103 C10.36 102.21, -1.42 92.5, 0 77.25 M25.75 103 C7.53 104.83, 1.89 96.44, 0 77.25 M0 77.25 C0.04 67.75, -0.3 52.62, 0 25.75 M0 77.25 C-0.28 65.1, -1.11 53.4, 0 25.75 M0 25.75 C-0.65 8.57, 7.79 1.75, 25.75 0 M0 25.75 C-0.82 7.35, 10.38 -1.68, 25.75 0" stroke="#2b8a3e" stroke-width="2" fill="none"></path></g><g stroke-linecap="round" transform="translate(1038.5 485) rotate(0 139.5 51.5)"><path d="M6.2 6.71 C6.2 6.71, 6.2 6.71, 6.2 6.71 M6.2 6.71 C6.2 6.71, 6.2 6.71, 6.2 6.71 M3.05 22.53 C9.12 17.59, 16.02 10.03, 18.14 5.17 M3.05 22.53 C7.39 16.8, 13.36 10.77, 18.14 5.17 M3.18 34.57 C8.2 28.88, 15.02 20.01, 30.08 3.63 M3.18 34.57 C8.72 26.78, 15.68 20.23, 30.08 3.63 M3.32 46.61 C16.47 31.79, 27.81 15.75, 40.71 3.59 M3.32 46.61 C15.22 34.57, 25.15 21.84, 40.71 3.59 M3.45 58.65 C18.17 43.31, 32.35 26.9, 51.34 3.56 M3.45 58.65 C17.21 43.63, 28.65 29.86, 51.34 3.56 M3.58 70.69 C26.29 43.84, 48.33 18.1, 61.97 3.52 M3.58 70.69 C24.3 48.12, 42.53 25.2, 61.97 3.52 M1.75 85 C14.96 67.93, 32.05 50.39, 72.6 3.49 M1.75 85 C21.21 61.33, 41.65 39.4, 72.6 3.49 M4.51 94.02 C29.07 63.25, 58.36 32.79, 83.23 3.45 M4.51 94.02 C26.84 71, 47.21 45.14, 83.23 3.45 M9.89 100.02 C42.87 60.41, 76.03 21.95, 93.86 3.42 M9.89 100.02 C37.34 67.7, 65.3 37.1, 93.86 3.42 M17.24 103.76 C38.36 78.99, 56.47 59.18, 104.49 3.38 M17.24 103.76 C44.29 73.63, 71.68 41.6, 104.49 3.38 M27.21 104.48 C53.71 73.35, 78.05 45.87, 115.12 3.35 M27.21 104.48 C56.26 71.72, 86.72 37.02, 115.12 3.35 M37.84 104.45 C72.58 67.25, 106.71 26.41, 125.1 4.07 M37.84 104.45 C69.79 68.29, 101.32 32.1, 125.1 4.07 M48.47 104.41 C77.74 71.4, 107.16 32.85, 135.73 4.03 M48.47 104.41 C71.48 77.45, 95.2 52.21, 135.73 4.03 M59.1 104.38 C91.78 68.3, 120.79 35.49, 146.36 4 M59.1 104.38 C91.67 66.84, 124.92 28.83, 146.36 4 M69.73 104.34 C100.06 72.04, 128.12 39.07, 156.99 3.97 M69.73 104.34 C99.27 70.39, 130.17 36.26, 156.99 3.97 M80.36 104.31 C108.44 73.5, 136.16 41.28, 167.62 3.93 M80.36 104.31 C111.35 69.86, 140.98 35.71, 167.62 3.93 M90.99 104.27 C122.92 67.75, 155.51 29.52, 178.25 3.9 M90.99 104.27 C114.41 76.66, 138.21 50.18, 178.25 3.9 M101.62 104.24 C132.62 68.43, 162.22 32.5, 188.88 3.86 M101.62 104.24 C131.83 68.62, 162.51 33.7, 188.88 3.86 M112.25 104.2 C140.27 73.29, 164.71 47, 199.51 3.83 M112.25 104.2 C145.17 67.57, 176.84 30.04, 199.51 3.83 M122.88 104.17 C151.29 75.57, 175.66 46.46, 210.14 3.79 M122.88 104.17 C149.57 73.88, 175.4 43.66, 210.14 3.79 M133.51 104.14 C163.32 69.15, 195.08 31.51, 220.77 3.76 M133.51 104.14 C154.9 79.92, 177.77 54.06, 220.77 3.76 M144.14 104.1 C171.28 72.69, 198.26 43.31, 231.4 3.72 M144.14 104.1 C175.36 66.99, 208.26 31.35, 231.4 3.72 M154.77 104.07 C175.31 78.36, 197.48 53.43, 242.03 3.69 M154.77 104.07 C185.68 68.12, 216.18 32.13, 242.03 3.69 M165.4 104.03 C194.99 70.21, 226.43 34.75, 254.63 1.39 M165.4 104.03 C200.79 63.25, 233.25 24.09, 254.63 1.39 M176.03 104 C204.65 70.84, 232.54 36.89, 264.6 2.11 M176.03 104 C195.54 83.06, 213.08 61.03, 264.6 2.11 M186.01 104.72 C204.19 84.61, 223.37 61.61, 271.95 5.85 M186.01 104.72 C206.32 80.29, 228.96 55.74, 271.95 5.85 M196.64 104.68 C226.98 70.95, 255.42 37.12, 277.33 11.85 M196.64 104.68 C224.52 70.2, 254.2 38.1, 277.33 11.85 M207.27 104.65 C235.04 74.88, 262.43 43.1, 280.09 20.88 M207.27 104.65 C229.66 80.51, 250.64 55.3, 280.09 20.88 M217.9 104.61 C231.2 89.47, 245.62 74.99, 280.22 32.92 M217.9 104.61 C231.96 87.89, 247.82 70.56, 280.22 32.92 M228.53 104.58 C247.7 82.94, 266.8 63.26, 280.36 44.96 M228.53 104.58 C246.1 84.86, 262.18 66.35, 280.36 44.96 M239.16 104.55 C252.57 90.08, 263.22 75.13, 280.49 57 M239.16 104.55 C252.74 88.96, 265.76 73.17, 280.49 57 M249.79 104.51 C258.06 95.92, 267.08 86.66, 280.62 69.04 M249.79 104.51 C261.56 89.55, 274.7 75.64, 280.62 69.04 M257.79 107.49 C268.57 98.67, 275.59 87.54, 282.07 79.57 M257.79 107.49 C267.4 97.01, 276.14 86.87, 282.07 79.57" stroke="#fd7e14" stroke-width="1" fill="none"></path><path d="M25.75 0 M25.75 0 C95.94 0.44, 170.22 0.39, 253.25 0 M25.75 0 C76.02 1.14, 125.16 2.22, 253.25 0 M253.25 0 C268.65 1.36, 277.8 6.64, 279 25.75 M253.25 0 C270.52 0.38, 281.08 8.98, 279 25.75 M279 25.75 C280.22 35.44, 277.94 49.3, 279 77.25 M279 25.75 C280.09 40.76, 279.93 54.49, 279 77.25 M279 77.25 C280.09 95.74, 269.26 101.77, 253.25 103 M279 77.25 C278.57 93.58, 272.43 101.89, 253.25 103 M253.25 103 C195.88 100.65, 136.97 103.58, 25.75 103 M253.25 103 C203 105.36, 153.99 105.08, 25.75 103 M25.75 103 C9.34 102.5, -0.07 93.98, 0 77.25 M25.75 103 C6.65 102.05, 1.23 92.46, 0 77.25 M0 77.25 C-1.56 58.76, 0.36 38.75, 0 25.75 M0 77.25 C0.04 64.08, -0.48 50.83, 0 25.75 M0 25.75 C-0.2 9.13, 7.51 0.41, 25.75 0 M0 25.75 C-2.24 9.24, 10.24 0.6, 25.75 0" stroke="#d9480f" stroke-width="2" fill="none"></path></g><g stroke-linecap="round" transform="translate(228.5 504) rotate(0 139.5 51.5)"><path d="M6.2 6.71 C6.2 6.71, 6.2 6.71, 6.2 6.71 M6.2 6.71 C6.2 6.71, 6.2 6.71, 6.2 6.71 M3.05 22.53 C6.04 18.55, 8.7 13.59, 18.14 5.17 M3.05 22.53 C8.2 16.53, 14.19 9.26, 18.14 5.17 M3.18 34.57 C11.37 27.01, 16.36 16.79, 30.08 3.63 M3.18 34.57 C10.94 27.2, 17.06 18.32, 30.08 3.63 M3.32 46.61 C18.96 30.75, 31.14 12.32, 40.71 3.59 M3.32 46.61 C12.2 35.25, 22.09 25.18, 40.71 3.59 M3.45 58.65 C16.55 45.24, 28.12 31.41, 51.34 3.56 M3.45 58.65 C18.21 41.68, 34.37 24.25, 51.34 3.56 M3.58 70.69 C22.39 47.82, 40.7 26.25, 61.97 3.52 M3.58 70.69 C27.21 45.5, 48.72 18.76, 61.97 3.52 M1.75 85 C26.34 56.63, 49.72 26.45, 72.6 3.49 M1.75 85 C29.26 53.98, 54.5 23.84, 72.6 3.49 M4.51 94.02 C27.6 66.95, 53.37 37.83, 83.23 3.45 M4.51 94.02 C22.86 71.42, 42.82 49.19, 83.23 3.45 M9.89 100.02 C29.69 76.1, 50.8 50.59, 93.86 3.42 M9.89 100.02 C38.04 68.7, 65.27 36.48, 93.86 3.42 M17.24 103.76 C37.62 80.46, 55.59 60.57, 104.49 3.38 M17.24 103.76 C35.36 84.66, 53.45 63.16, 104.49 3.38 M27.21 104.48 C54.96 74.56, 83.12 42.27, 115.12 3.35 M27.21 104.48 C52.93 74.87, 78.86 44.56, 115.12 3.35 M37.84 104.45 C72.78 65.79, 108.59 25.34, 125.1 4.07 M37.84 104.45 C61.77 76.67, 85.33 50, 125.1 4.07 M48.47 104.41 C78.81 67.44, 109.18 32.13, 135.73 4.03 M48.47 104.41 C72.02 75.35, 97.75 46.72, 135.73 4.03 M59.1 104.38 C78.09 82.41, 99.83 59.91, 146.36 4 M59.1 104.38 C88.27 72.12, 117.14 37.82, 146.36 4 M69.73 104.34 C92.28 83.39, 112.44 57.19, 156.99 3.97 M69.73 104.34 C98.92 70.75, 126.15 36.6, 156.99 3.97 M80.36 104.31 C107.62 69.66, 135.69 38.12, 167.62 3.93 M80.36 104.31 C106.51 72.98, 133.75 42.76, 167.62 3.93 M90.99 104.27 C112 82.63, 131 59.32, 178.25 3.9 M90.99 104.27 C122.82 67.79, 153.39 32.51, 178.25 3.9 M101.62 104.24 C135.19 67.63, 166.9 30.53, 188.88 3.86 M101.62 104.24 C133.08 68.29, 165.4 32.31, 188.88 3.86 M112.25 104.2 C138.31 75.11, 163.83 45.68, 199.51 3.83 M112.25 104.2 C139.96 72.89, 166.99 40.6, 199.51 3.83 M122.88 104.17 C144.46 79.93, 167.27 50.77, 210.14 3.79 M122.88 104.17 C154.63 68.45, 186.38 31.81, 210.14 3.79 M133.51 104.14 C167.93 63.44, 202.07 23.64, 220.77 3.76 M133.51 104.14 C153.54 79.4, 172.31 56.3, 220.77 3.76 M144.14 104.1 C176.37 67.85, 206.61 33.6, 231.4 3.72 M144.14 104.1 C162.72 83.75, 178.76 62.87, 231.4 3.72 M154.77 104.07 C186.49 67.09, 220.14 29.19, 242.03 3.69 M154.77 104.07 C187.08 66.51, 219.44 29.15, 242.03 3.69 M165.4 104.03 C186.93 81.08, 208.3 53.54, 254.63 1.39 M165.4 104.03 C185.12 80, 207.15 56.3, 254.63 1.39 M176.03 104 C203.86 74.65, 230.39 42.44, 264.6 2.11 M176.03 104 C199.6 75.73, 225.35 47.25, 264.6 2.11 M186.01 104.72 C217.2 68.08, 251.99 29.95, 271.95 5.85 M186.01 104.72 C207.42 79.12, 228.34 54.05, 271.95 5.85 M196.64 104.68 C220.18 76.27, 243.72 52.76, 277.33 11.85 M196.64 104.68 C224.49 75.77, 250.6 44.09, 277.33 11.85 M207.27 104.65 C224.61 82.11, 243.46 61.61, 280.09 20.88 M207.27 104.65 C230.79 77.41, 256.3 49.64, 280.09 20.88 M217.9 104.61 C235.02 85.29, 255.71 65.08, 280.22 32.92 M217.9 104.61 C241.54 77.89, 264.16 52.52, 280.22 32.92 M228.53 104.58 C248.53 81.57, 269.59 60.12, 280.36 44.96 M228.53 104.58 C238.54 91.71, 249.4 80.13, 280.36 44.96 M239.16 104.55 C252.68 89.05, 264.26 75.88, 280.49 57 M239.16 104.55 C252.97 90.01, 264.94 74.57, 280.49 57 M249.79 104.51 C261.19 89.88, 270.03 80.51, 280.62 69.04 M249.79 104.51 C257.77 95.87, 265.45 87.05, 280.62 69.04 M257.79 107.49 C266.6 97.09, 276.89 87.31, 282.07 79.57 M257.79 107.49 C263.7 100, 272.35 90.32, 282.07 79.57" stroke="#4c6ef5" stroke-width="1" fill="none"></path><path d="M25.75 0 M25.75 0 C107.97 1.12, 191.72 -0.25, 253.25 0 M25.75 0 C87.44 0.48, 147.5 0.67, 253.25 0 M253.25 0 C268.48 1.95, 280.95 10.27, 279 25.75 M253.25 0 C269.08 -1.8, 280.21 9.32, 279 25.75 M279 25.75 C280.34 39.3, 278.4 56.26, 279 77.25 M279 25.75 C279.17 46.17, 279.52 67.44, 279 77.25 M279 77.25 C280.06 95.26, 270.8 103.15, 253.25 103 M279 77.25 C278.49 93.33, 270.7 102.13, 253.25 103 M253.25 103 C185.97 100.22, 118.1 101.42, 25.75 103 M253.25 103 C206.71 101.1, 158.54 100.78, 25.75 103 M25.75 103 C9.59 102.02, 1.18 94.88, 0 77.25 M25.75 103 C8.78 103.95, 1.43 93.07, 0 77.25 M0 77.25 C0.87 60.8, -1.91 43.79, 0 25.75 M0 77.25 C-0.09 65.55, -1.28 54.08, 0 25.75 M0 25.75 C1.18 9.6, 7.25 1.73, 25.75 0 M0 25.75 C0.92 7.09, 9.39 -0.68, 25.75 0" stroke="#364fc7" stroke-width="2" fill="none"></path></g><g transform="translate(529.5 10) rotate(0 211 23)"><text x="211" y="32" font-family="Virgil, Segoe UI Emoji" font-size="36px" fill="#2b8a3e" text-anchor="middle" style="white-space: pre;" direction="ltr">Authority to do a thing</text></g><g transform="translate(1125 610) rotate(0 207.5 69)"><text x="207.5" y="32" font-family="Virgil, Segoe UI Emoji" font-size="36px" fill="#d9480f" text-anchor="middle" style="white-space: pre;" direction="ltr">Accountability </text><text x="207.5" y="78" font-family="Virgil, Segoe UI Emoji" font-size="36px" fill="#d9480f" text-anchor="middle" style="white-space: pre;" direction="ltr">that it has been done </text><text x="207.5" y="124" font-family="Virgil, Segoe UI Emoji" font-size="36px" fill="#d9480f" text-anchor="middle" style="white-space: pre;" direction="ltr">and done correctly</text></g><g transform="translate(10 637) rotate(0 204.5 46)"><text x="204.5" y="32" font-family="Virgil, Segoe UI Emoji" font-size="36px" fill="#364fc7" text-anchor="middle" style="white-space: pre;" direction="ltr">Responsibility </text><text x="204.5" y="78" font-family="Virgil, Segoe UI Emoji" font-size="36px" fill="#364fc7" text-anchor="middle" style="white-space: pre;" direction="ltr">to do it and do it well</text></g><g stroke-linecap="round"><g transform="translate(548.5 126) rotate(0 -112.0529969038048 165.09473061749247)"><path d="M1.07 -0.47 C-33.68 11.71, -171.41 18.44, -207.35 73.85 C-243.29 129.25, -213.61 288.92, -214.55 331.96 M0.17 -1.77 C-34.3 10.45, -169.12 19.47, -205.09 74.78 C-241.05 130.1, -214.41 287.57, -215.6 330.11" stroke="#495057" stroke-width="2" fill="none"></path></g><g transform="translate(548.5 126) rotate(0 -112.0529969038048 165.09473061749247)"><path d="M-228.4 301.21 C-224.63 312.41, -216.4 325.78, -213.85 328.56 M-226.64 302.56 C-224.25 311, -219.11 320.83, -215.74 329.43" stroke="#495057" stroke-width="2" fill="none"></path></g><g transform="translate(548.5 126) rotate(0 -112.0529969038048 165.09473061749247)"><path d="M-207.92 299.92 C-212.2 311.81, -212.02 325.69, -213.85 328.56 M-206.16 301.27 C-210.58 310.16, -212.26 320.42, -215.74 329.43" stroke="#495057" stroke-width="2" fill="none"></path></g></g><g stroke-linecap="round"><g transform="translate(485.4999999999998 646) rotate(0 279.85098852087754 43.12143203876997)"><path d="M0.71 -0.66 C47.58 16.69, 187.71 105.33, 280.56 102.95 C373.41 100.56, 511.42 4.81, 557.81 -14.96 M-0.38 1.6 C46.92 18.73, 189.38 104.38, 282.79 101.32 C376.19 98.26, 514.03 2.53, 560.08 -16.75" stroke="#495057" stroke-width="2" fill="none"></path></g><g transform="translate(485.4999999999998 646) rotate(0 279.85098852087754 43.12143203876997)"><path d="M538.95 4.03 C546.78 -2.03, 551.89 -5.77, 560.65 -14.79 M539.25 5.28 C545.45 -0.82, 551.22 -5.59, 559.46 -17.59" stroke="#495057" stroke-width="2" fill="none"></path></g><g transform="translate(485.4999999999998 646) rotate(0 279.85098852087754 43.12143203876997)"><path d="M529.27 -14.07 C539.32 -15.72, 546.82 -14.99, 560.65 -14.79 M529.58 -12.82 C538.11 -14.37, 546.32 -14.57, 559.46 -17.59" stroke="#495057" stroke-width="2" fill="none"></path></g></g><g stroke-linecap="round"><g transform="translate(1197.4999999999998 466) rotate(0 -141.4077899053692 -165.7386258895928)"><path d="M1.14 -0.06 C-8.18 -39, -8.81 -179.45, -56.32 -234.34 C-103.84 -289.23, -246.33 -313.35, -283.95 -329.39 M0.27 -1.14 C-9.05 -39.84, -9.68 -177.94, -56.65 -232.99 C-103.62 -288.03, -244.11 -315.29, -281.56 -331.42" stroke="#495057" stroke-width="2" fill="none"></path></g><g transform="translate(1197.4999999999998 466) rotate(0 -141.4077899053692 -165.7386258895928)"><path d="M-251.68 -330.64 C-260 -333.6, -266.25 -330.16, -282.52 -332.7 M-251.33 -332.1 C-261.53 -332.19, -273.13 -331.9, -281.34 -332.05" stroke="#495057" stroke-width="2" fill="none"></path></g><g transform="translate(1197.4999999999998 466) rotate(0 -141.4077899053692 -165.7386258895928)"><path d="M-257.93 -311.1 C-264.5 -319.22, -269.12 -320.89, -282.52 -332.7 M-257.57 -312.56 C-265.62 -319.49, -275.05 -326, -281.34 -332.05" stroke="#495057" stroke-width="2" fill="none"></path></g></g></svg>