<svg version="1.1" xmlns="http://www.w3.org/2000/svg" viewBox="0 0 1983 118" width="1983" height="118">
  <!-- svg-source:excalidraw -->
  
  <defs>
    <style>
      @font-face {
        font-family: "Virgil";
        src: url("https://excalidraw.com/Virgil.woff2");
      }
      @font-face {
        font-family: "Cascadia";
        src: url("https://excalidraw.com/Cascadia.woff2");
      }
    </style>
  </defs>
  <rect x="0" y="0" width="1983" height="118" fill="#ffffff"></rect><g stroke-linecap="round" transform="translate(10 20) rotate(0 137 44)"><path d="M3.39 8.25 C3.39 8.25, 3.39 8.25, 3.39 8.25 M3.39 8.25 C3.39 8.25, 3.39 8.25, 3.39 8.25 M4.18 19.54 C6.32 15.95, 8.75 13.32, 14.02 8.22 M4.18 19.54 C7.44 17.24, 9.11 14.11, 14.02 8.22 M3.66 32.33 C9.74 21.53, 19.03 16.09, 27.28 5.16 M3.66 32.33 C8.84 26.8, 13.58 21.55, 27.28 5.16 M3.79 44.37 C16.76 31.02, 28.34 17.18, 37.91 5.13 M3.79 44.37 C11.11 36.59, 18.82 28.8, 37.91 5.13 M3.93 56.41 C15.18 42.5, 27.39 29.15, 48.54 5.09 M3.93 56.41 C15.52 43.01, 27.05 29.05, 48.54 5.09 M1.43 71.47 C15.97 58.15, 28.89 41.14, 59.17 5.06 M1.43 71.47 C19.69 49.73, 36.55 29.83, 59.17 5.06 M4.19 80.49 C29.66 50.32, 55.95 20.28, 69.8 5.02 M4.19 80.49 C18.49 62.48, 33.13 46.11, 69.8 5.02 M10.89 84.99 C29.85 60, 51.8 35.54, 80.43 4.99 M10.89 84.99 C36.58 55.65, 63.35 27.14, 80.43 4.99 M16.92 90.24 C33.41 71.99, 48.29 55.2, 91.06 4.95 M16.92 90.24 C33.91 70.22, 51.6 50.94, 91.06 4.95 M26.24 91.71 C52.46 62.73, 77.32 34.68, 101.69 4.92 M26.24 91.71 C41.56 72.9, 56.83 57.09, 101.69 4.92 M36.87 91.68 C54.7 69.7, 74.28 45.42, 112.32 4.89 M36.87 91.68 C60.82 64.02, 85.38 36.51, 112.32 4.89 M47.5 91.64 C75.41 58.88, 102.47 26.35, 122.95 4.85 M47.5 91.64 C69.87 65.31, 93.19 40.79, 122.95 4.85 M58.13 91.61 C72.27 73.5, 88.51 53.92, 133.58 4.82 M58.13 91.61 C81.13 65.13, 105.15 38.32, 133.58 4.82 M68.76 91.57 C93 63.08, 119.04 33.5, 144.21 4.78 M68.76 91.57 C96.06 58.67, 124 27.34, 144.21 4.78 M79.39 91.54 C102.88 63.07, 126.28 35.59, 154.84 4.75 M79.39 91.54 C103.12 64.59, 125.41 37.62, 154.84 4.75 M90.02 91.5 C117.22 59.1, 146.14 28.01, 165.47 4.71 M90.02 91.5 C118.05 57.93, 146.45 24.37, 165.47 4.71 M100.65 91.47 C125.51 64.8, 151.86 35.54, 176.1 4.68 M100.65 91.47 C119.55 69.49, 137.04 47.57, 176.1 4.68 M111.28 91.44 C132.93 67.3, 153.77 40.17, 186.73 4.64 M111.28 91.44 C137.39 61.36, 162.63 30.99, 186.73 4.64 M121.91 91.4 C139 70.54, 156.67 50.09, 197.36 4.61 M121.91 91.4 C145.92 65.35, 168.07 38.65, 197.36 4.61 M132.54 91.37 C159.34 59.62, 188.73 24.23, 207.99 4.58 M132.54 91.37 C155.29 64.53, 179.59 37.86, 207.99 4.58 M143.17 91.33 C162 65.13, 183.29 42.3, 218.62 4.54 M143.17 91.33 C167.17 65.72, 189.09 38.28, 218.62 4.54 M153.15 92.05 C181.02 58.87, 210.38 28.28, 229.25 4.51 M153.15 92.05 C181.11 59.29, 210.1 25.79, 229.25 4.51 M163.78 92.02 C194.79 57.88, 222.27 25.29, 239.88 4.47 M163.78 92.02 C187.75 64.62, 212.77 34.93, 239.88 4.47 M174.41 91.98 C190.28 72.86, 208.91 51.42, 253.13 1.42 M174.41 91.98 C195.81 67.91, 217.55 43.06, 253.13 1.42 M185.04 91.95 C207.85 66.27, 231.23 41.03, 263.11 2.14 M185.04 91.95 C205.95 69.21, 225.71 45.99, 263.11 2.14 M195.67 91.91 C223.59 60.24, 250.98 26.44, 269.15 7.39 M195.67 91.91 C223.94 58.36, 252.61 25.1, 269.15 7.39 M206.3 91.88 C220.95 72.81, 236.45 56.53, 275.18 12.64 M206.3 91.88 C224.08 70.96, 243.67 49.68, 275.18 12.64 M216.93 91.85 C238.75 64.07, 262.58 39.04, 278.6 20.9 M216.93 91.85 C239.56 67.14, 261.05 42.45, 278.6 20.9 M227.56 91.81 C242.31 73.94, 256.61 57.96, 278.73 32.94 M227.56 91.81 C244.6 70.55, 262.46 49.06, 278.73 32.94 M238.19 91.78 C252.3 76.81, 264.14 64.85, 278.86 44.98 M238.19 91.78 C247.72 81.58, 256.53 70, 278.86 44.98 M252.1 87.97 C261.52 74.74, 274.36 63.51, 279 57.03 M252.1 87.97 C261.97 76.63, 272.11 66.15, 279 57.03 M265.35 84.92 C268.16 83.79, 269.84 80.43, 273.22 75.86 M265.35 84.92 C267.68 82.15, 271.01 79, 273.22 75.86 M2.77 79.12 C2.77 79.12, 2.77 79.12, 2.77 79.12 M2.77 79.12 C2.77 79.12, 2.77 79.12, 2.77 79.12 M23.11 86.21 C16.43 79.5, 6.44 73.16, 2.73 68.49 M23.11 86.21 C17.6 81.68, 13.67 77.47, 2.73 68.49 M35.91 86.73 C25.89 76.92, 17.99 71.33, 2.7 57.86 M35.91 86.73 C26.5 77.82, 15.19 69.67, 2.7 57.86 M47.95 86.6 C34.53 73.68, 17.2 61.74, 2.67 47.23 M47.95 86.6 C33.76 74.02, 19.89 62.58, 2.67 47.23 M59.99 86.46 C48.09 76.78, 33.64 61.89, 2.63 36.6 M59.99 86.46 C39.48 68.99, 21.71 52.22, 2.63 36.6 M72.03 86.33 C43.84 64.03, 17.13 40.63, 2.6 25.97 M72.03 86.33 C57.47 72.48, 41.31 59.02, 2.6 25.97 M84.07 86.2 C56.55 63.11, 34.09 40.38, 1.81 14.69 M84.07 86.2 C59 63.55, 32.86 41.59, 1.81 14.69 M96.87 86.72 C73.36 66.54, 54.34 48.62, 4.79 6.68 M96.87 86.72 C74.3 65.38, 48.71 45.81, 4.79 6.68 M108.91 86.59 C77.34 58.35, 44.38 29.25, 10.8 1.3 M108.91 86.59 C85.32 64.22, 59.68 42.6, 10.8 1.3 M120.95 86.45 C85.33 57.16, 49.28 23.58, 19.82 -1.46 M120.95 86.45 C86.31 54.36, 49.85 23.36, 19.82 -1.46 M132.99 86.32 C96.79 53.41, 55.87 19.86, 27.33 -5.53 M132.99 86.32 C101.96 58.43, 70.87 30.96, 27.33 -5.53 M145.03 86.19 C113.65 61.58, 85.49 34.67, 39.37 -5.66 M145.03 86.19 C114.29 61.93, 86.83 36.27, 39.37 -5.66 M157.83 86.71 C123.64 56.04, 86.29 26.8, 51.41 -5.79 M157.83 86.71 C119.53 54.53, 81.76 20.84, 51.41 -5.79 M169.87 86.58 C147.58 68.05, 123.16 46.58, 63.45 -5.93 M169.87 86.58 C141.63 63.42, 114.81 40.09, 63.45 -5.93 M181.91 86.44 C161.34 68.39, 140.18 48.15, 75.49 -6.06 M181.91 86.44 C153.48 61.3, 125.48 37.49, 75.49 -6.06 M193.95 86.31 C171.33 67.2, 146.18 45.45, 88.29 -5.54 M193.95 86.31 C158.07 53.73, 121.7 22.49, 88.29 -5.54 M205.99 86.18 C181.44 65.92, 156.77 45.26, 100.33 -5.67 M205.99 86.18 C181.27 65.13, 157.28 44.02, 100.33 -5.67 M218.78 86.7 C192.22 65.96, 169.18 43.34, 112.37 -5.8 M218.78 86.7 C192.44 62, 164.44 38.34, 112.37 -5.8 M230.83 86.57 C197.68 57.25, 165.62 28.02, 124.41 -5.94 M230.83 86.57 C194.69 54.9, 158.95 23.99, 124.41 -5.94 M242.87 86.44 C220.16 65.98, 200.62 46.85, 136.45 -6.07 M242.87 86.44 C205.39 53.8, 169 22.87, 136.45 -6.07 M254.15 85.65 C214.74 50.55, 174.89 14.13, 149.25 -5.55 M254.15 85.65 C219.85 58.25, 187.99 30.04, 149.25 -5.55 M265.44 84.86 C227.46 51.96, 188.29 18.12, 161.29 -5.68 M265.44 84.86 C244.43 67.53, 222.16 47.66, 161.29 -5.68 M270.69 78.82 C245.69 55.41, 219.72 35.39, 173.33 -5.81 M270.69 78.82 C240.74 50.1, 208.93 23.33, 173.33 -5.81 M275.18 72.13 C255.28 55.77, 236.29 39.54, 185.37 -5.95 M275.18 72.13 C249.84 49.89, 224.65 29.12, 185.37 -5.95 M276.66 62.81 C244.38 34.1, 215.28 7.97, 197.41 -6.08 M276.66 62.81 C245.84 35.7, 216.99 9.2, 197.41 -6.08 M276.62 52.18 C256.99 37.22, 238.27 21.22, 210.21 -5.56 M276.62 52.18 C261.2 38.62, 244.93 25.38, 210.21 -5.56 M276.59 41.55 C261.26 26.41, 242.99 12.02, 222.25 -5.69 M276.59 41.55 C257.55 26.95, 239.85 11.02, 222.25 -5.69 M276.55 30.92 C263.41 16.65, 245 3.61, 234.29 -5.82 M276.55 30.92 C268.54 22.3, 258.23 13.71, 234.29 -5.82 M276.52 20.29 C265.49 11.75, 258.23 3.58, 252.37 -0.71 M276.52 20.29 C269.71 14.93, 263.21 8.76, 252.37 -0.71" stroke="#15aabf" stroke-width="1" fill="none"></path><path d="M22 0 M22 0 C87.22 -1.73, 154.68 0.08, 252 0 M22 0 C111.34 -0.49, 200.07 0.47, 252 0 M252 0 C265.99 -1, 273.28 6.84, 274 22 M252 0 C268.46 1.12, 275.58 9.21, 274 22 M274 22 C274.01 36.83, 274.33 53.17, 274 66 M274 22 C273.56 36.69, 274.09 53.93, 274 66 M274 66 C274.03 78.83, 267.71 87.28, 252 88 M274 66 C275.02 82.41, 264.7 86.77, 252 88 M252 88 C195.19 88.65, 139.5 90.1, 22 88 M252 88 C175.47 88.3, 97.93 87.75, 22 88 M22 88 C9.09 87.07, -0.63 82.65, 0 66 M22 88 C9.42 90.03, -1.04 81.36, 0 66 M0 66 C-1.54 56.02, -0.75 40.79, 0 22 M0 66 C-0.04 55.81, -0.05 43.38, 0 22 M0 22 C1.02 6.25, 8.93 -1.66, 22 0 M0 22 C-0.27 8.23, 7.98 0.86, 22 0" stroke="#495057" stroke-width="2" fill="none"></path></g><g stroke-linecap="round" transform="translate(576 11) rotate(0 137 44)"><path d="M3.39 8.25 C3.39 8.25, 3.39 8.25, 3.39 8.25 M3.39 8.25 C3.39 8.25, 3.39 8.25, 3.39 8.25 M4.18 19.54 C7.36 17.33, 10.94 12.23, 14.02 8.22 M4.18 19.54 C7.7 15.36, 11.39 11.4, 14.02 8.22 M3.66 32.33 C11.63 22.54, 18.96 12.15, 27.28 5.16 M3.66 32.33 C11.74 24.5, 17.96 15.81, 27.28 5.16 M3.79 44.37 C13.34 29.61, 26.42 20.04, 37.91 5.13 M3.79 44.37 C12.53 34.07, 21.34 23.06, 37.91 5.13 M3.93 56.41 C13.37 42.73, 25.53 29.64, 48.54 5.09 M3.93 56.41 C17.51 40.29, 31.38 24.63, 48.54 5.09 M1.43 71.47 C13.44 59.5, 27.04 42.23, 59.17 5.06 M1.43 71.47 C19.76 49.88, 39.04 26.42, 59.17 5.06 M4.19 80.49 C25.95 55.44, 49.53 30.82, 69.8 5.02 M4.19 80.49 C23.89 57.62, 44.26 32.82, 69.8 5.02 M10.89 84.99 C30.15 60.58, 55.05 34.78, 80.43 4.99 M10.89 84.99 C38.79 52.76, 65.81 22.08, 80.43 4.99 M16.92 90.24 C40.13 64.95, 63.46 37.54, 91.06 4.95 M16.92 90.24 C37.25 65.56, 58.11 42.4, 91.06 4.95 M26.24 91.71 C45.14 70.1, 67.75 43.19, 101.69 4.92 M26.24 91.71 C53.01 61.12, 78.96 31.21, 101.69 4.92 M36.87 91.68 C54.36 72.45, 71.25 54.44, 112.32 4.89 M36.87 91.68 C60.65 65.43, 83.44 39.72, 112.32 4.89 M47.5 91.64 C74.79 59.28, 104.75 25.46, 122.95 4.85 M47.5 91.64 C72.28 62.78, 97.16 35, 122.95 4.85 M58.13 91.61 C81.81 62.82, 105.46 36.65, 133.58 4.82 M58.13 91.61 C79.43 67.44, 101.3 43.63, 133.58 4.82 M68.76 91.57 C97.76 56.77, 126.5 24.04, 144.21 4.78 M68.76 91.57 C92.4 66.25, 114.72 38.85, 144.21 4.78 M79.39 91.54 C103.79 60.92, 128.13 32.36, 154.84 4.75 M79.39 91.54 C107.43 59.35, 134.02 29.12, 154.84 4.75 M90.02 91.5 C113.17 63.45, 135.42 37.47, 165.47 4.71 M90.02 91.5 C111.56 66.26, 133.36 41.26, 165.47 4.71 M100.65 91.47 C120.05 68.53, 138.67 48.91, 176.1 4.68 M100.65 91.47 C126.89 62.35, 151.15 33.95, 176.1 4.68 M111.28 91.44 C139.46 60.21, 168.58 26.05, 186.73 4.64 M111.28 91.44 C137.63 59.83, 165.73 29.22, 186.73 4.64 M121.91 91.4 C146.71 63.4, 168.19 39.36, 197.36 4.61 M121.91 91.4 C138.77 71.58, 157.32 50.68, 197.36 4.61 M132.54 91.37 C157.3 63.82, 180.28 37.16, 207.99 4.58 M132.54 91.37 C149.39 71.49, 166.53 52.18, 207.99 4.58 M143.17 91.33 C173.93 59.32, 199.9 22.64, 218.62 4.54 M143.17 91.33 C169.73 61.63, 195.24 30.17, 218.62 4.54 M153.15 92.05 C178.54 64.65, 202.62 35.95, 229.25 4.51 M153.15 92.05 C170.3 72.65, 187.84 52.39, 229.25 4.51 M163.78 92.02 C182.75 70.31, 201.21 50.23, 239.88 4.47 M163.78 92.02 C194.63 56.94, 224.14 23.11, 239.88 4.47 M174.41 91.98 C204.15 57, 234.4 19.44, 253.13 1.42 M174.41 91.98 C202.51 58.75, 232.18 26.38, 253.13 1.42 M185.04 91.95 C209.06 66.77, 232.03 40.86, 263.11 2.14 M185.04 91.95 C210.65 61.83, 237.79 31.06, 263.11 2.14 M195.67 91.91 C212.55 72.95, 229.64 53.28, 269.15 7.39 M195.67 91.91 C215.54 68.56, 236.12 46.01, 269.15 7.39 M206.3 91.88 C232.7 59.53, 258.47 30.3, 275.18 12.64 M206.3 91.88 C233.98 60.18, 262.73 27.35, 275.18 12.64 M216.93 91.85 C240.19 66, 260.67 41.92, 278.6 20.9 M216.93 91.85 C231.46 75.74, 246.71 58, 278.6 20.9 M227.56 91.81 C240.15 77.92, 254.49 60.04, 278.73 32.94 M227.56 91.81 C239.88 79.1, 250.09 65.9, 278.73 32.94 M238.19 91.78 C254.96 75.06, 270.59 54.87, 278.86 44.98 M238.19 91.78 C254.37 73.38, 271.02 55.55, 278.86 44.98 M252.1 87.97 C258.15 79.06, 265.51 73.67, 279 57.03 M252.1 87.97 C260.21 78.13, 268.76 68.2, 279 57.03 M265.35 84.92 C267.69 81.51, 270.46 77.82, 273.22 75.86 M265.35 84.92 C267.37 82.32, 270.49 79.4, 273.22 75.86 M2.77 79.12 C2.77 79.12, 2.77 79.12, 2.77 79.12 M2.77 79.12 C2.77 79.12, 2.77 79.12, 2.77 79.12 M23.11 86.21 C17.4 81.33, 14.22 76.74, 2.73 68.49 M23.11 86.21 C16.17 80.01, 6.74 73.29, 2.73 68.49 M35.91 86.73 C24 79.7, 14.72 71.2, 2.7 57.86 M35.91 86.73 C27 78.33, 17.96 69.79, 2.7 57.86 M47.95 86.6 C32.13 75.81, 18.58 63.68, 2.67 47.23 M47.95 86.6 C34.23 75.94, 21.3 63.96, 2.67 47.23 M59.99 86.46 C38.69 68.65, 18.73 50.84, 2.63 36.6 M59.99 86.46 C37.88 68.09, 16.59 47.84, 2.63 36.6 M72.03 86.33 C54.64 71.77, 41.68 60.65, 2.6 25.97 M72.03 86.33 C49.78 68.88, 27.89 48.69, 2.6 25.97 M84.07 86.2 C65.49 72.14, 48.92 58.33, 1.81 14.69 M84.07 86.2 C54 58.91, 21.38 32.74, 1.81 14.69 M96.87 86.72 C70.32 65.53, 45.12 44.98, 4.79 6.68 M96.87 86.72 C76.43 70.17, 56.76 53.13, 4.79 6.68 M108.91 86.59 C77.6 58.3, 44.3 30.54, 10.8 1.3 M108.91 86.59 C72.32 51.94, 33.33 19.35, 10.8 1.3 M120.95 86.45 C83.79 53.79, 44.26 18.5, 19.82 -1.46 M120.95 86.45 C82.3 53.72, 44.73 21.5, 19.82 -1.46 M132.99 86.32 C110.98 67.18, 87.67 43.76, 27.33 -5.53 M132.99 86.32 C93.19 52.46, 53.28 18.55, 27.33 -5.53 M145.03 86.19 C110.14 51.14, 73.14 19.04, 39.37 -5.66 M145.03 86.19 C119.52 65.85, 94.12 43.09, 39.37 -5.66 M157.83 86.71 C131.38 61.31, 105.2 36.65, 51.41 -5.79 M157.83 86.71 C122.81 57.8, 87.59 27.51, 51.41 -5.79 M169.87 86.58 C145.96 65.53, 123.86 45.37, 63.45 -5.93 M169.87 86.58 C141.28 62.37, 113.77 37.2, 63.45 -5.93 M181.91 86.44 C154.1 60.26, 125.69 34.96, 75.49 -6.06 M181.91 86.44 C148.36 57.53, 114.88 27.77, 75.49 -6.06 M193.95 86.31 C164 62.6, 134.9 36.12, 88.29 -5.54 M193.95 86.31 C154.28 52.4, 113.64 16.85, 88.29 -5.54 M205.99 86.18 C171.5 57.56, 137.98 24.73, 100.33 -5.67 M205.99 86.18 C183.81 66.85, 161.47 46.95, 100.33 -5.67 M218.78 86.7 C184.65 58.57, 154.43 30.92, 112.37 -5.8 M218.78 86.7 C181.33 55.01, 142.62 21.57, 112.37 -5.8 M230.83 86.57 C191.19 52.8, 152.65 18.6, 124.41 -5.94 M230.83 86.57 C191.92 54.21, 152.85 18.55, 124.41 -5.94 M242.87 86.44 C209.88 58.84, 174.42 28.2, 136.45 -6.07 M242.87 86.44 C200.49 50.14, 159.48 14.36, 136.45 -6.07 M254.15 85.65 C232.87 69.88, 213.43 48.39, 149.25 -5.55 M254.15 85.65 C215.99 53.38, 179.06 20.64, 149.25 -5.55 M265.44 84.86 C226.72 51.37, 189.95 19.74, 161.29 -5.68 M265.44 84.86 C228.34 53.94, 193.06 23.09, 161.29 -5.68 M270.69 78.82 C244.61 56.74, 218.74 33.38, 173.33 -5.81 M270.69 78.82 C232.61 44, 193.73 10.33, 173.33 -5.81 M275.18 72.13 C255.54 55.1, 238.26 40.33, 185.37 -5.95 M275.18 72.13 C247.09 49.58, 220.12 25.98, 185.37 -5.95 M276.66 62.81 C257.08 43.34, 236.46 27.37, 197.41 -6.08 M276.66 62.81 C247.1 37.33, 217.98 12.33, 197.41 -6.08 M276.62 52.18 C263.15 40.74, 248.67 31.38, 210.21 -5.56 M276.62 52.18 C262.24 39.75, 248.3 27.15, 210.21 -5.56 M276.59 41.55 C257.84 26.33, 238.21 7.69, 222.25 -5.69 M276.59 41.55 C256.02 24.34, 237.16 7.52, 222.25 -5.69 M276.55 30.92 C267.3 23.99, 261.04 15.62, 234.29 -5.82 M276.55 30.92 C266.9 22.12, 256.24 13.26, 234.29 -5.82 M276.52 20.29 C268.02 10.45, 259.26 2.36, 252.37 -0.71 M276.52 20.29 C267.45 11.71, 259.38 5.79, 252.37 -0.71" stroke="#228be6" stroke-width="1" fill="none"></path><path d="M22 0 M22 0 C90.72 -0.27, 161.94 -2.48, 252 0 M22 0 C78.91 -1.58, 135.35 -1.72, 252 0 M252 0 C268.45 0.69, 274.06 6.79, 274 22 M252 0 C267.6 2.25, 273.17 8.1, 274 22 M274 22 C275.77 40.87, 275.56 55.22, 274 66 M274 22 C273.02 35.83, 274.7 50.75, 274 66 M274 66 C272.14 79.64, 268.22 86.25, 252 88 M274 66 C274.7 82.4, 267.33 86.3, 252 88 M252 88 C169.82 89.36, 91.11 90.04, 22 88 M252 88 C173.8 90.22, 96.58 89.78, 22 88 M22 88 C9.1 89.73, -1.26 78.74, 0 66 M22 88 C9.1 86.53, 1.37 79.61, 0 66 M0 66 C1.77 58.18, -1.52 47.76, 0 22 M0 66 C0.94 51.58, 0.38 37.43, 0 22 M0 22 C-0.51 5.96, 7.1 -0.39, 22 0 M0 22 C-1.93 7.46, 6.97 1.58, 22 0" stroke="#495057" stroke-width="2" fill="none"></path></g><g stroke-linecap="round" transform="translate(1143 10) rotate(0 137 44)"><path d="M3.39 8.25 C3.39 8.25, 3.39 8.25, 3.39 8.25 M3.39 8.25 C3.39 8.25, 3.39 8.25, 3.39 8.25 M4.18 19.54 C7.2 15.04, 11.59 11.62, 14.02 8.22 M4.18 19.54 C7.85 15.09, 11.31 10.45, 14.02 8.22 M3.66 32.33 C11.46 25.27, 20.75 15.63, 27.28 5.16 M3.66 32.33 C10.03 25.17, 14.77 17.92, 27.28 5.16 M3.79 44.37 C13.53 34.32, 22.17 21.22, 37.91 5.13 M3.79 44.37 C15.61 30.97, 26.54 17.06, 37.91 5.13 M3.93 56.41 C13.81 43.84, 24.32 31.63, 48.54 5.09 M3.93 56.41 C18.35 40.94, 31.09 25.07, 48.54 5.09 M1.43 71.47 C21.53 47.47, 44.13 19.88, 59.17 5.06 M1.43 71.47 C18.81 50.83, 37.58 30.51, 59.17 5.06 M4.19 80.49 C20.33 57.47, 38.87 37.82, 69.8 5.02 M4.19 80.49 C25.16 58.32, 44.05 34.36, 69.8 5.02 M10.89 84.99 C36.34 54.58, 63.34 26.71, 80.43 4.99 M10.89 84.99 C36.4 55.09, 62.93 24.41, 80.43 4.99 M16.92 90.24 C47.18 56.94, 73.91 25.2, 91.06 4.95 M16.92 90.24 C40.28 63.58, 64.67 34.61, 91.06 4.95 M26.24 91.71 C41.43 73.41, 59.36 52.77, 101.69 4.92 M26.24 91.71 C46.75 68.66, 67.6 44.84, 101.69 4.92 M36.87 91.68 C58.9 66.88, 81.52 42.52, 112.32 4.89 M36.87 91.68 C57.1 69.7, 76.18 47.25, 112.32 4.89 M47.5 91.64 C76.16 59.11, 104.3 24.44, 122.95 4.85 M47.5 91.64 C76.52 57.21, 105.96 23.06, 122.95 4.85 M58.13 91.61 C74.27 70.75, 91.31 52.71, 133.58 4.82 M58.13 91.61 C77.68 68.62, 99.03 45.31, 133.58 4.82 M68.76 91.57 C95.54 57.99, 124.38 27.19, 144.21 4.78 M68.76 91.57 C96.36 61.36, 122.7 31.09, 144.21 4.78 M79.39 91.54 C101.14 65.81, 122.35 41.87, 154.84 4.75 M79.39 91.54 C104.78 60.19, 131.24 28.81, 154.84 4.75 M90.02 91.5 C114.57 64.33, 137.24 39.91, 165.47 4.71 M90.02 91.5 C107.27 72.1, 124.05 51.37, 165.47 4.71 M100.65 91.47 C128.57 57.55, 159.6 25.41, 176.1 4.68 M100.65 91.47 C128.08 59.88, 155.56 29.47, 176.1 4.68 M111.28 91.44 C131.13 73.06, 148.53 50.67, 186.73 4.64 M111.28 91.44 C135.36 62.4, 161.79 33.13, 186.73 4.64 M121.91 91.4 C141.05 66.16, 164.58 41.86, 197.36 4.61 M121.91 91.4 C148.53 59.62, 176.37 28.29, 197.36 4.61 M132.54 91.37 C163.97 56.59, 192.11 22.75, 207.99 4.58 M132.54 91.37 C148.31 70.94, 166.19 50.99, 207.99 4.58 M143.17 91.33 C163.17 66.41, 185.32 44.8, 218.62 4.54 M143.17 91.33 C166.56 65.49, 187.77 40, 218.62 4.54 M153.15 92.05 C178.71 62.59, 200.82 35, 229.25 4.51 M153.15 92.05 C176.8 64.31, 200.41 37.99, 229.25 4.51 M163.78 92.02 C182.62 73.2, 199.23 49.54, 239.88 4.47 M163.78 92.02 C188.9 60.54, 216.74 30.89, 239.88 4.47 M174.41 91.98 C204.52 56.84, 236.06 21.57, 253.13 1.42 M174.41 91.98 C192.94 70.16, 209.88 49.95, 253.13 1.42 M185.04 91.95 C208.1 61.87, 236.2 33.37, 263.11 2.14 M185.04 91.95 C209.07 63.72, 232.13 36.15, 263.11 2.14 M195.67 91.91 C211.37 71.21, 231.61 52.23, 269.15 7.39 M195.67 91.91 C216.24 68.81, 233.77 48.07, 269.15 7.39 M206.3 91.88 C231.03 64.47, 254.35 37.41, 275.18 12.64 M206.3 91.88 C225.27 70.74, 242.26 50.67, 275.18 12.64 M216.93 91.85 C238.02 68.98, 258.56 41.3, 278.6 20.9 M216.93 91.85 C239.65 66.22, 260.59 41.2, 278.6 20.9 M227.56 91.81 C248.6 69.71, 265.19 48.27, 278.73 32.94 M227.56 91.81 C242.34 75.03, 256.97 57.18, 278.73 32.94 M238.19 91.78 C246.92 80.72, 258.5 66.04, 278.86 44.98 M238.19 91.78 C248.28 79.77, 261.27 66.56, 278.86 44.98 M252.1 87.97 C262.32 77.24, 268.9 68.29, 279 57.03 M252.1 87.97 C261.86 77.45, 272.64 66.18, 279 57.03 M265.35 84.92 C267.51 82.98, 268.07 79.95, 273.22 75.86 M265.35 84.92 C266.72 83.14, 268.7 80.85, 273.22 75.86 M2.77 79.12 C2.77 79.12, 2.77 79.12, 2.77 79.12 M2.77 79.12 C2.77 79.12, 2.77 79.12, 2.77 79.12 M23.11 86.21 C20.22 83.41, 14.58 78.63, 2.73 68.49 M23.11 86.21 C15.89 79.34, 8.82 73.57, 2.73 68.49 M35.91 86.73 C28.21 80.69, 20.62 74.87, 2.7 57.86 M35.91 86.73 C27.66 80.3, 20.36 73.68, 2.7 57.86 M47.95 86.6 C35.97 78.05, 27.45 68.06, 2.67 47.23 M47.95 86.6 C37.3 75.88, 25.1 65.95, 2.67 47.23 M59.99 86.46 C42.44 70.74, 25.62 54.76, 2.63 36.6 M59.99 86.46 C40.61 69.35, 21.5 52.89, 2.63 36.6 M72.03 86.33 C56.81 72.83, 45.04 60.47, 2.6 25.97 M72.03 86.33 C47.47 64.84, 23.96 45.11, 2.6 25.97 M84.07 86.2 C53.41 58.71, 22.2 29.8, 1.81 14.69 M84.07 86.2 C57.05 64.8, 32.32 42.79, 1.81 14.69 M96.87 86.72 C63.48 57.73, 28.83 27.83, 4.79 6.68 M96.87 86.72 C78.39 71.48, 58.64 53.8, 4.79 6.68 M108.91 86.59 C83.71 63.01, 57.55 42.82, 10.8 1.3 M108.91 86.59 C78.72 57.65, 46.66 30.67, 10.8 1.3 M120.95 86.45 C98.55 68.08, 77.11 49.72, 19.82 -1.46 M120.95 86.45 C92.4 61.44, 64.06 37.93, 19.82 -1.46 M132.99 86.32 C90.24 48.71, 50.76 13.56, 27.33 -5.53 M132.99 86.32 C92.2 50.36, 53.3 15.12, 27.33 -5.53 M145.03 86.19 C114.3 61.77, 84.82 36.42, 39.37 -5.66 M145.03 86.19 C120.55 64.8, 94.89 43.4, 39.37 -5.66 M157.83 86.71 C126.11 57.69, 91.45 29.07, 51.41 -5.79 M157.83 86.71 C121.49 57.39, 86.3 26.26, 51.41 -5.79 M169.87 86.58 C134.11 52.84, 93.43 20.45, 63.45 -5.93 M169.87 86.58 C148.38 65.27, 124.03 44.49, 63.45 -5.93 M181.91 86.44 C139 49.94, 99.23 13.5, 75.49 -6.06 M181.91 86.44 C150.93 61.09, 120.68 34.27, 75.49 -6.06 M193.95 86.31 C162.04 59.75, 133.4 35.51, 88.29 -5.54 M193.95 86.31 C154.41 50.53, 113.25 16.13, 88.29 -5.54 M205.99 86.18 C177.84 62.92, 151.21 38.3, 100.33 -5.67 M205.99 86.18 C164 50.39, 123.76 15.48, 100.33 -5.67 M218.78 86.7 C195.67 66.94, 172.83 49.12, 112.37 -5.8 M218.78 86.7 C181.25 52.3, 143.13 20.35, 112.37 -5.8 M230.83 86.57 C209.38 66.68, 183.99 46.31, 124.41 -5.94 M230.83 86.57 C208.67 68.09, 187.69 50.78, 124.41 -5.94 M242.87 86.44 C213.54 62.32, 188.37 40.35, 136.45 -6.07 M242.87 86.44 C201.61 51.18, 159.8 14.21, 136.45 -6.07 M254.15 85.65 C213.03 51.13, 171.94 15.1, 149.25 -5.55 M254.15 85.65 C215.05 50.12, 175.98 15.62, 149.25 -5.55 M265.44 84.86 C235.8 57.4, 206.59 31.5, 161.29 -5.68 M265.44 84.86 C226.91 51.54, 185.72 15.22, 161.29 -5.68 M270.69 78.82 C233.63 45.82, 196.99 16.42, 173.33 -5.81 M270.69 78.82 C233.49 46.14, 195.44 14.19, 173.33 -5.81 M275.18 72.13 C242.51 43.85, 210.25 16.37, 185.37 -5.95 M275.18 72.13 C250.49 50.96, 226.08 29.37, 185.37 -5.95 M276.66 62.81 C256.53 48.06, 237.74 28.77, 197.41 -6.08 M276.66 62.81 C249.96 39.14, 224.87 17.43, 197.41 -6.08 M276.62 52.18 C265.1 40.18, 250.34 29.24, 210.21 -5.56 M276.62 52.18 C259.53 36.68, 239.58 21.63, 210.21 -5.56 M276.59 41.55 C259.16 27.29, 244.98 13.42, 222.25 -5.69 M276.59 41.55 C256.13 22.93, 234.76 5.4, 222.25 -5.69 M276.55 30.92 C268.34 22.77, 259.81 14.1, 234.29 -5.82 M276.55 30.92 C260.15 17.15, 242.48 1.87, 234.29 -5.82 M276.52 20.29 C266.55 12.46, 261.02 4.84, 252.37 -0.71 M276.52 20.29 C268.71 13.77, 259.82 6.23, 252.37 -0.71" stroke="#7950f2" stroke-width="1" fill="none"></path><path d="M22 0 M22 0 C78.72 -2.58, 131.08 -1.04, 252 0 M22 0 C97.46 -0.78, 172.54 -1.24, 252 0 M252 0 C267.31 0.49, 274.76 8.57, 274 22 M252 0 C266.8 -1.55, 275.81 6.83, 274 22 M274 22 C275.1 32.78, 273.24 45.98, 274 66 M274 22 C275.13 37.56, 274.4 52.88, 274 66 M274 66 C275.3 80.01, 264.97 89.41, 252 88 M274 66 C273.54 78.94, 264.43 86.6, 252 88 M252 88 C171.87 86.14, 92.87 86.64, 22 88 M252 88 C184.86 86.86, 117.37 86.31, 22 88 M22 88 C6.97 88.43, 0.58 80.41, 0 66 M22 88 C7.18 88.62, 0.17 81.35, 0 66 M0 66 C-0.98 48.73, 0.33 32.37, 0 22 M0 66 C0.56 52.72, -0.46 41.61, 0 22 M0 22 C-0.64 5.88, 7.96 -1.94, 22 0 M0 22 C0.62 7.78, 6.51 1.34, 22 0" stroke="#495057" stroke-width="2" fill="none"></path></g><g stroke-linecap="round" transform="translate(1699 11) rotate(0 137 44)"><path d="M3.39 8.25 C3.39 8.25, 3.39 8.25, 3.39 8.25 M3.39 8.25 C3.39 8.25, 3.39 8.25, 3.39 8.25 M4.18 19.54 C7.47 14.06, 12.08 10.53, 14.02 8.22 M4.18 19.54 C8.03 15.57, 11.33 11.8, 14.02 8.22 M3.66 32.33 C10.49 23.38, 16.93 16.43, 27.28 5.16 M3.66 32.33 C11.23 22.52, 19.33 12.26, 27.28 5.16 M3.79 44.37 C15.94 31.71, 25.74 22.1, 37.91 5.13 M3.79 44.37 C11.87 35.91, 19.18 26.06, 37.91 5.13 M3.93 56.41 C20.1 35.63, 39.57 16.78, 48.54 5.09 M3.93 56.41 C20.2 37.69, 36.67 19.94, 48.54 5.09 M1.43 71.47 C16.97 57.79, 30.23 40.17, 59.17 5.06 M1.43 71.47 C19.77 49.38, 40.27 26.93, 59.17 5.06 M4.19 80.49 C20.58 58.53, 41.25 37.52, 69.8 5.02 M4.19 80.49 C27.21 52.77, 51.49 25.54, 69.8 5.02 M10.89 84.99 C39.97 52.95, 65.76 21.81, 80.43 4.99 M10.89 84.99 C25.36 66.11, 41.9 47.72, 80.43 4.99 M16.92 90.24 C36.56 65.72, 58.35 44.53, 91.06 4.95 M16.92 90.24 C39.91 64.84, 60.72 39.81, 91.06 4.95 M26.24 91.71 C51.6 62.5, 73.49 35.15, 101.69 4.92 M26.24 91.71 C49.69 64.2, 73.1 38.12, 101.69 4.92 M36.87 91.68 C55.57 73.04, 72.02 49.55, 112.32 4.89 M36.87 91.68 C61.77 60.46, 89.39 31.07, 112.32 4.89 M47.5 91.64 C76.32 58.01, 106.57 24.22, 122.95 4.85 M47.5 91.64 C65.3 70.69, 81.51 51.32, 122.95 4.85 M58.13 91.61 C80.37 62.5, 107.64 34.95, 133.58 4.82 M58.13 91.61 C81.38 64.31, 103.63 37.66, 133.58 4.82 M68.76 91.57 C84.92 70.34, 105.62 50.82, 144.21 4.78 M68.76 91.57 C89.87 67.87, 107.91 46.54, 144.21 4.78 M79.39 91.54 C106.33 61.54, 131.86 31.94, 154.84 4.75 M79.39 91.54 C100.11 68.46, 118.78 46.46, 154.84 4.75 M90.02 91.5 C115.78 63.18, 141.1 29.99, 165.47 4.71 M90.02 91.5 C117.64 60.33, 143.45 29.72, 165.47 4.71 M100.65 91.47 C130.83 58.93, 156.33 27.25, 176.1 4.68 M100.65 91.47 C122.44 66.78, 144.15 40.79, 176.1 4.68 M111.28 91.44 C129.11 69.83, 150.12 44.3, 186.73 4.64 M111.28 91.44 C130.64 68.32, 153.24 44.05, 186.73 4.64 M121.91 91.4 C147.69 62.15, 170.27 34.79, 197.36 4.61 M121.91 91.4 C149.79 60.27, 178.26 28.66, 197.36 4.61 M132.54 91.37 C148.87 72.34, 163.02 52.09, 207.99 4.58 M132.54 91.37 C150.17 70.7, 169.19 48.81, 207.99 4.58 M143.17 91.33 C160.14 72.96, 176.57 53.9, 218.62 4.54 M143.17 91.33 C162.93 69.14, 183.15 46.85, 218.62 4.54 M153.15 92.05 C172.14 72.53, 188.59 51.78, 229.25 4.51 M153.15 92.05 C179.67 61.48, 205.74 31.72, 229.25 4.51 M163.78 92.02 C182.06 71.19, 200.25 51.53, 239.88 4.47 M163.78 92.02 C180.89 72.24, 198.76 52.11, 239.88 4.47 M174.41 91.98 C191.83 70.41, 212.76 48.25, 253.13 1.42 M174.41 91.98 C195.92 68.52, 215.77 45.36, 253.13 1.42 M185.04 91.95 C209.23 64.75, 234.5 36.35, 263.11 2.14 M185.04 91.95 C211.49 61.51, 238.31 31.51, 263.11 2.14 M195.67 91.91 C210.68 74.15, 228.94 56.7, 269.15 7.39 M195.67 91.91 C220.88 61.76, 247.18 33.61, 269.15 7.39 M206.3 91.88 C233.27 62.05, 259.74 30.19, 275.18 12.64 M206.3 91.88 C226.87 66.68, 249.79 42.23, 275.18 12.64 M216.93 91.85 C241.21 65.93, 264.17 39.44, 278.6 20.9 M216.93 91.85 C230.54 77.17, 242.86 61.39, 278.6 20.9 M227.56 91.81 C240.64 75.31, 252.51 61.86, 278.73 32.94 M227.56 91.81 C245.7 72.55, 262.23 54.17, 278.73 32.94 M238.19 91.78 C246.62 81.05, 255.79 71.57, 278.86 44.98 M238.19 91.78 C249.34 78.71, 260.42 66.63, 278.86 44.98 M252.1 87.97 C261.69 73.73, 274.28 62.5, 279 57.03 M252.1 87.97 C261.55 75.75, 273.12 63.7, 279 57.03 M265.35 84.92 C266.91 83.08, 268.77 80.5, 273.22 75.86 M265.35 84.92 C267.27 82.51, 268.92 80.68, 273.22 75.86 M2.77 79.12 C2.77 79.12, 2.77 79.12, 2.77 79.12 M2.77 79.12 C2.77 79.12, 2.77 79.12, 2.77 79.12 M23.11 86.21 C17.69 78.58, 6.87 72.14, 2.73 68.49 M23.11 86.21 C19.7 81.92, 14.18 77.49, 2.73 68.49 M35.91 86.73 C21.37 75.12, 10.53 63.84, 2.7 57.86 M35.91 86.73 C26.44 79.17, 17.32 70.73, 2.7 57.86 M47.95 86.6 C33.73 74.77, 22.42 65.6, 2.67 47.23 M47.95 86.6 C31.25 71.06, 13.45 56.96, 2.67 47.23 M59.99 86.46 C44.48 74.55, 30.7 61.1, 2.63 36.6 M59.99 86.46 C36.76 67.13, 14.96 48.25, 2.63 36.6 M72.03 86.33 C56.64 73.13, 41.36 61.87, 2.6 25.97 M72.03 86.33 C47.72 63.76, 22.82 43.3, 2.6 25.97 M84.07 86.2 C67.7 70.96, 47.49 55.1, 1.81 14.69 M84.07 86.2 C66.95 71.85, 50.82 58.76, 1.81 14.69 M96.87 86.72 C71.36 65.77, 49.98 47.09, 4.79 6.68 M96.87 86.72 C61.12 56.27, 24.89 24.14, 4.79 6.68 M108.91 86.59 C70.38 54.41, 31.91 20.65, 10.8 1.3 M108.91 86.59 C72.37 53.32, 35.85 21.04, 10.8 1.3 M120.95 86.45 C92.19 59.75, 63.85 34.6, 19.82 -1.46 M120.95 86.45 C83.56 54.13, 43.52 18.81, 19.82 -1.46 M132.99 86.32 C92.85 50.65, 53.08 18.54, 27.33 -5.53 M132.99 86.32 C92.59 50.84, 51.4 16.16, 27.33 -5.53 M145.03 86.19 C106.78 53.01, 68.88 20.64, 39.37 -5.66 M145.03 86.19 C116.01 61.17, 87.16 35.71, 39.37 -5.66 M157.83 86.71 C131 66.28, 105.5 41.16, 51.41 -5.79 M157.83 86.71 C122.01 55.22, 88.01 25.77, 51.41 -5.79 M169.87 86.58 C150.6 67.75, 127.83 49.86, 63.45 -5.93 M169.87 86.58 C142.05 61.89, 111.07 37.24, 63.45 -5.93 M181.91 86.44 C148.63 58.23, 118.45 30.45, 75.49 -6.06 M181.91 86.44 C141.65 49.96, 100.3 15.07, 75.49 -6.06 M193.95 86.31 C172.75 66.53, 150.72 46.14, 88.29 -5.54 M193.95 86.31 C152.55 51.13, 109.54 13.81, 88.29 -5.54 M205.99 86.18 C168.78 55.53, 136.56 24.71, 100.33 -5.67 M205.99 86.18 C169.26 54.62, 131.76 22.2, 100.33 -5.67 M218.78 86.7 C195.53 64.52, 166.47 44.08, 112.37 -5.8 M218.78 86.7 C183.35 56.32, 147.68 25.35, 112.37 -5.8 M230.83 86.57 C196.49 56.36, 158.55 27.09, 124.41 -5.94 M230.83 86.57 C201.33 62.17, 171.91 35.52, 124.41 -5.94 M242.87 86.44 C200.64 53.07, 161.31 15.87, 136.45 -6.07 M242.87 86.44 C200.64 51.34, 160.5 14.43, 136.45 -6.07 M254.15 85.65 C231.66 66.96, 211.05 47.66, 149.25 -5.55 M254.15 85.65 C227.15 61.45, 200.39 38.9, 149.25 -5.55 M265.44 84.86 C244.39 66.23, 221.83 46.5, 161.29 -5.68 M265.44 84.86 C232.16 54.7, 197.25 25.3, 161.29 -5.68 M270.69 78.82 C243.41 56.63, 217.65 33.59, 173.33 -5.81 M270.69 78.82 C248.77 59.81, 227.65 40.66, 173.33 -5.81 M275.18 72.13 C246.81 48.13, 217.59 20.55, 185.37 -5.95 M275.18 72.13 C241.55 42.37, 209.32 13.63, 185.37 -5.95 M276.66 62.81 C249.94 39.15, 222.42 16.17, 197.41 -6.08 M276.66 62.81 C248.11 37.8, 220.25 13.45, 197.41 -6.08 M276.62 52.18 C260.94 40.79, 250.4 29.22, 210.21 -5.56 M276.62 52.18 C252.2 30.99, 228.03 11.74, 210.21 -5.56 M276.59 41.55 C260.38 30.03, 248.26 14.41, 222.25 -5.69 M276.59 41.55 C261.24 27.67, 246.55 15.28, 222.25 -5.69 M276.55 30.92 C262.09 14.99, 245.84 1.73, 234.29 -5.82 M276.55 30.92 C260.7 17.23, 243.59 2.79, 234.29 -5.82 M276.52 20.29 C269.97 11.23, 258.97 4.38, 252.37 -0.71 M276.52 20.29 C270.04 14.6, 263.76 9.28, 252.37 -0.71" stroke="#82c91e" stroke-width="1" fill="none"></path><path d="M22 0 M22 0 C75.73 -2.01, 131.99 -1.11, 252 0 M22 0 C69.71 0.66, 115.13 -0.12, 252 0 M252 0 C267.28 -1.35, 273.44 7.83, 274 22 M252 0 C266.23 -2.23, 272.19 5.35, 274 22 M274 22 C274.88 34.09, 272.35 43.03, 274 66 M274 22 C272.87 38.33, 274.32 54.43, 274 66 M274 66 C272.31 79.94, 267.28 86.25, 252 88 M274 66 C274.9 79.9, 265.64 90.07, 252 88 M252 88 C167.83 87.86, 86.48 86.55, 22 88 M252 88 C203.26 88.33, 152.66 87.83, 22 88 M22 88 C9.2 88.79, -0.17 78.83, 0 66 M22 88 C7.56 89.31, -2.29 82.5, 0 66 M0 66 C0.24 52.62, -0.83 37.31, 0 22 M0 66 C-0.87 49.72, 0.16 34.3, 0 22 M0 22 C0.67 7.09, 8.18 -1.17, 22 0 M0 22 C1.38 6.04, 6.54 0.7, 22 0" stroke="#495057" stroke-width="2" fill="none"></path></g><g transform="translate(38 41) rotate(0 109 23)"><text x="109" y="32" font-family="Virgil, Segoe UI Emoji" font-size="36px" fill="#495057" text-anchor="middle" style="white-space: pre;" direction="ltr">Technologies</text></g><g transform="translate(651.5 32) rotate(0 61.5 23)"><text x="61.5" y="32" font-family="Virgil, Segoe UI Emoji" font-size="36px" fill="#495057" text-anchor="middle" style="white-space: pre;" direction="ltr">Trends</text></g><g transform="translate(1164 31) rotate(0 116 23)"><text x="116" y="32" font-family="Virgil, Segoe UI Emoji" font-size="36px" fill="#495057" text-anchor="middle" style="white-space: pre;" direction="ltr">Opportunities</text></g><g transform="translate(1757 32) rotate(0 79 23)"><text x="79" y="32" font-family="Virgil, Segoe UI Emoji" font-size="36px" fill="#495057" text-anchor="middle" style="white-space: pre;" direction="ltr">Solutions</text></g><g stroke-linecap="round"><g transform="translate(303 65) rotate(0 125.84072882384066 -1.9704084716970272)"><path d="M-1.09 -1.14 C41.1 -2.12, 210.66 -4.3, 252.77 -4.82 M0.55 0.88 C42.67 0.55, 210.55 -3.05, 252.22 -3.71" stroke="#495057" stroke-width="2" fill="none"></path></g><g transform="translate(303 65) rotate(0 125.84072882384066 -1.9704084716970272)"><path d="M222.33 8.36 C230.37 3.71, 238.86 3.18, 252.51 -5.22 M224.52 7.85 C235.52 3.38, 246.18 -2.06, 252.61 -3.07" stroke="#495057" stroke-width="2" fill="none"></path></g><g transform="translate(303 65) rotate(0 125.84072882384066 -1.9704084716970272)"><path d="M221.95 -12.16 C230.26 -11.24, 238.86 -6.19, 252.51 -5.22 M224.14 -12.66 C235.49 -8.97, 246.31 -6.24, 252.61 -3.07" stroke="#495057" stroke-width="2" fill="none"></path></g></g><g stroke-linecap="round"><g transform="translate(868.01281106242 53.99152053706456) rotate(0 129.36355524143505 -0.9637578036880541)"><path d="M-0.24 -0.48 C43.2 -0.64, 217.19 -1.35, 260.55 -1.47 M-1.82 -1.77 C41.57 -1.72, 216.67 -0.46, 260.22 -0.16" stroke="#495057" stroke-width="2" fill="none"></path></g><g transform="translate(868.01281106242 53.99152053706456) rotate(0 129.36355524143505 -0.9637578036880541)"><path d="M231.17 11.87 C239.53 7.99, 248.28 4.29, 261.87 -1.54 M231.8 10.3 C241.65 6.13, 251.03 2.84, 260.77 0.19" stroke="#495057" stroke-width="2" fill="none"></path></g><g transform="translate(868.01281106242 53.99152053706456) rotate(0 129.36355524143505 -0.9637578036880541)"><path d="M231.31 -8.65 C239.55 -6.53, 248.26 -4.23, 261.87 -1.54 M231.94 -10.22 C241.76 -7.53, 251.1 -3.98, 260.77 0.19" stroke="#495057" stroke-width="2" fill="none"></path></g></g><g stroke-linecap="round"><g transform="translate(1429 59) rotate(0 125.8492843946674 -2.3340393379330635)"><path d="M0.99 -0.1 C43.05 -0.67, 209.76 -3.95, 251.65 -4.57 M0.05 -1.2 C41.99 -1.51, 208.57 -3.13, 250.52 -3.33" stroke="#495057" stroke-width="2" fill="none"></path></g><g transform="translate(1429 59) rotate(0 125.8492843946674 -2.3340393379330635)"><path d="M222.24 6.56 C228.28 4.95, 236.24 1.96, 251.93 -1.54 M222.76 6.73 C230.79 3.39, 238.14 1.14, 251.21 -2.86" stroke="#495057" stroke-width="2" fill="none"></path></g><g transform="translate(1429 59) rotate(0 125.8492843946674 -2.3340393379330635)"><path d="M222.08 -13.96 C227.97 -10.66, 235.97 -8.74, 251.93 -1.54 M222.61 -13.79 C230.74 -11.66, 238.13 -8.43, 251.21 -2.86" stroke="#495057" stroke-width="2" fill="none"></path></g></g><g transform="translate(318 15) rotate(0 106 23)"><text x="106" y="32" font-family="Virgil, Segoe UI Emoji" font-size="36px" fill="#495057" text-anchor="middle" style="white-space: pre;" direction="ltr">are part of</text></g><g transform="translate(930.5 10) rotate(0 59.5 23)"><text x="59.5" y="32" font-family="Virgil, Segoe UI Emoji" font-size="36px" fill="#495057" text-anchor="middle" style="white-space: pre;" direction="ltr">create</text></g><g transform="translate(1483 11) rotate(0 67 23)"><text x="67" y="32" font-family="Virgil, Segoe UI Emoji" font-size="36px" fill="#495057" text-anchor="middle" style="white-space: pre;" direction="ltr">lead to</text></g></svg>